<svg width="25" height="25" viewBox="0 0 25 25" fill="none" xmlns="http://www.w3.org/2000/svg">
<path d="M23.25 7.46875C23.1239 6.9753 22.9293 6.50194 22.6718 6.0625C22.4245 5.60536 22.1083 5.18902 21.7343 4.82812C21.1921 4.28771 20.55 3.85786 19.8437 3.5625C18.4221 2.97905 16.8278 2.97905 15.4062 3.5625C14.7386 3.84506 14.1253 4.2416 13.5937 4.73437L13.5156 4.82812L12.5 5.84375L11.4843 4.82812L11.4062 4.73437C10.8746 4.2416 10.2613 3.84506 9.5937 3.5625C8.17207 2.97905 6.57783 2.97905 5.1562 3.5625C4.44992 3.85786 3.80781 4.28771 3.26558 4.82812C2.52396 5.54973 1.99897 6.4644 1.74995 7.46875C1.61747 7.97878 1.55441 8.50435 1.56245 9.03125C1.56245 9.52656 1.62495 10.0203 1.74995 10.5C1.88094 10.9844 2.0698 11.4513 2.31245 11.8906C2.57451 12.3422 2.89498 12.7572 3.26558 13.125L12.5 22.3594L21.7343 13.125C22.1046 12.7609 22.4218 12.3437 22.6718 11.8906C23.1793 11.0236 23.4438 10.0359 23.4375 9.03125C23.4456 8.50435 23.3825 7.97877 23.25 7.46875Z" fill="#574AE8"/>
</svg>
